HIERARCHY
ROOT Hips
{
	OFFSET 0.000000 0.000000 0.000000
	CHANNELS 6 Xposition Yposition Zposition Xrotation Yrotation Zrotation
	JOINT LeftUpLeg_virtual
	{
		OFFSET 0.000000 0.000000 0.000000
		CHANNELS 3 Xrotation Yrotation Zrotation
		JOINT LeftUpLeg
		{
			OFFSET 10.205400 -3.823500 0.155100
			CHANNELS 3 Xrotation Yrotation Zrotation
			JOINT LeftLeg
			{
				OFFSET 0.708757 -12.982077 0.567790
				CHANNELS 3 Xrotation Yrotation Zrotation
				JOINT LeftFoot
				{
					OFFSET -0.708756 -10.717838 -2.184338
					CHANNELS 3 Xrotation Yrotation Zrotation
					JOINT LeftToeBase
					{
						OFFSET 0.108149 -7.191104 7.560241
						CHANNELS 3 Xrotation Yrotation Zrotation
						JOINT LeftToe_End
						{
							OFFSET 0.070230 0.081724 4.490308
							CHANNELS 3 Xrotation Yrotation Zrotation
							End Site
							{
								OFFSET 0 0 0
							}
						}
					}
				}
			}
		}
	}
	JOINT RightUpLeg_virtual
	{
		OFFSET 0.000000 0.000000 0.000000
		CHANNELS 3 Xrotation Yrotation Zrotation
		JOINT RightUpLeg
		{
			OFFSET -10.205400 -3.823500 0.005500
			CHANNELS 3 Xrotation Yrotation Zrotation
			JOINT RightLeg
			{
				OFFSET -0.708756 -12.982134 0.610632
				CHANNELS 3 Xrotation Yrotation Zrotation
				JOINT RightFoot
				{
					OFFSET 0.708754 -10.717769 -1.945823
					CHANNELS 3 Xrotation Yrotation Zrotation
					JOINT RightToeBase
					{
						OFFSET -0.108140 -7.191069 7.372968
						CHANNELS 3 Xrotation Yrotation Zrotation
						JOINT RightToe_End
						{
							OFFSET -0.070227 0.081735 4.479403
							CHANNELS 3 Xrotation Yrotation Zrotation
							End Site
							{
								OFFSET 0 0 0
							}
						}
					}
				}
			}
		}
	}
	JOINT Spine_virtual
	{
		OFFSET 0.000000 0.000000 0.000000
		CHANNELS 3 Xrotation Yrotation Zrotation
		JOINT Spine
		{
			OFFSET 0.000000 6.876099 0.125700
			CHANNELS 3 Xrotation Yrotation Zrotation
			JOINT Spine1
			{
				OFFSET 0.000000 5.730043 0.104720
				CHANNELS 3 Xrotation Yrotation Zrotation
				JOINT Spine1_split
				{
					OFFSET 0.000000 5.730043 0.104720
					CHANNELS 3 Xrotation Yrotation Zrotation
					JOINT Spine2
					{
						OFFSET 0.000000 5.730043 0.104720
						CHANNELS 3 Xrotation Yrotation Zrotation
						JOINT Neck_virtual
						{
							OFFSET 0.000000 0.000000 0.000000
							CHANNELS 3 Xrotation Yrotation Zrotation
							JOINT Neck
							{
								OFFSET 0.000000 10.314075 0.188496
								CHANNELS 3 Xrotation Yrotation Zrotation
								JOINT Head
								{
									OFFSET 0.000000 7.643700 -2.377400
									CHANNELS 3 Xrotation Yrotation Zrotation
									JOINT HeadTop_End
									{
										OFFSET 0.000000 43.788605 -13.619600
										CHANNELS 3 Xrotation Yrotation Zrotation
										End Site
										{
											OFFSET 0 0 0
										}
									}
								}
							}
						}
						JOINT LeftShoulder_virtual
						{
							OFFSET 0.000000 0.000000 0.000000
							CHANNELS 3 Xrotation Yrotation Zrotation
							JOINT LeftShoulder
							{
								OFFSET 2.196100 4.412489 0.087492
								CHANNELS 3 Xrotation Yrotation Zrotation
								JOINT LeftShoulder_split
								{
									OFFSET 2.196100 4.412489 0.087492
									CHANNELS 3 Xrotation Yrotation Zrotation
									JOINT LeftArm
									{
										OFFSET 8.771219 -2.981674 -0.026999
										CHANNELS 3 Xrotation Yrotation Zrotation
										JOINT LeftForeArm
										{
											OFFSET 8.512804 0.000000 -0.000000
											CHANNELS 3 Xrotation Yrotation Zrotation
											JOINT LeftHand
											{
												OFFSET 18.484802 0.000000 -0.000000
												CHANNELS 3 Xrotation Yrotation Zrotation
												End Site
												{
													OFFSET 0 0 0
												}
											}
										}
									}
								}
							}
						}
						JOINT RightShoulder_virtual
						{
							OFFSET 0.000000 0.000000 0.000000
							CHANNELS 3 Xrotation Yrotation Zrotation
							JOINT RightShoulder
							{
								OFFSET -2.196100 4.412496 0.070690
								CHANNELS 3 Xrotation Yrotation Zrotation
								JOINT RightShoulder_split
								{
									OFFSET -2.196100 4.412496 0.070690
									CHANNELS 3 Xrotation Yrotation Zrotation
									JOINT RightArm
									{
										OFFSET -8.771282 -2.981682 -0.094208
										CHANNELS 3 Xrotation Yrotation Zrotation
										JOINT RightForeArm
										{
											OFFSET -8.494598 0.000000 0.000000
											CHANNELS 3 Xrotation Yrotation Zrotation
											JOINT RightHand
											{
												OFFSET -18.483803 0.000000 0.000001
												CHANNELS 3 Xrotation Yrotation Zrotation
												End Site
												{
													OFFSET 0 0 0
												}
											}
										}
									}
								}
							}
						}
					}
				}
			}
		}
	}
}
MOTION
Frames: 10
Frame Time: 0.03333333
-5.259219 23.667717 -1.620329 0.000000 0.000000 0.000000 -4.173756 -5.550354 -1.712013 -64.505843 -11.599780 8.243662 78.611762 -23.758803 -8.521149 -2.577818 -2.586261 -2.231268 -1.821972 0.675854 1.205637 0.000000 0.000000 0.000000 -4.740777 0.192438 -1.164067 -11.673899 5.125297 0.119348 96.627875 -11.822545 -8.554149 -45.428080 -10.587196 26.710901 -35.259561 0.218796 -1.985387 0.000000 0.000000 0.000000 -7.438017 1.091217 -2.022517 11.876576 1.556492 -1.815494 5.815235 0.699016 -3.313297 0.326271 -0.524230 0.062827 0.000000 0.000000 0.000000 5.463444 0.815693 -2.873731 1.844216 -3.245965 9.708326 12.466623 1.903165 -6.194137 0.000000 0.000000 0.000000 5.344341 0.524018 -2.383402 -7.552421 -39.797583 -7.015117 -2.145556 -4.342600 -2.753185 -37.478532 -14.494942 -33.197533 -93.250449 -55.610239 -88.685710 0.000000 0.000000 0.000000 5.434729 0.513833 -2.653322 -8.494438 30.775033 11.655917 -1.865213 -2.841224 5.037274 -47.781637 6.347330 39.302094 -130.323015 54.604805 128.280242 0.000000 0.000000 0.000000 
-5.379866 25.090025 -1.303968 0.000000 0.000000 0.000000 -2.065439 -3.765236 -0.914275 -58.651299 -11.273750 5.984593 68.639173 -23.388998 -7.478133 -1.187653 -3.434438 -3.374735 -3.986026 0.587313 1.725611 0.000000 0.000000 0.000000 -2.530790 2.145148 -0.511705 -7.050709 2.391109 0.802426 87.727599 -12.138106 -9.129204 -45.660532 -10.009594 24.931843 -32.644059 0.776885 -2.204032 0.000000 0.000000 0.000000 -5.205621 2.115606 -1.387474 10.834478 1.375058 -1.965765 3.755965 0.309745 -3.823691 1.177265 -0.273053 0.194471 0.000000 0.000000 0.000000 3.377823 0.385814 -3.045960 -5.028386 -3.602373 8.627627 12.112844 0.907747 -6.387477 0.000000 0.000000 0.000000 3.171816 0.253836 -2.680369 -6.732624 -35.060983 -6.274502 -1.715189 -5.797006 -1.398558 -27.701429 -13.250161 -24.040707 -111.254636 -62.302643 -109.889670 0.000000 0.000000 0.000000 3.310424 0.083131 -3.064469 -7.530313 25.772761 8.828621 -1.892159 -1.750898 3.736637 -38.713027 10.980748 35.530217 -148.506399 57.488691 148.294349 0.000000 0.000000 0.000000 
-5.485067 26.816303 -0.783369 0.000000 0.000000 0.000000 0.256720 -2.172441 -0.388816 -52.030373 -10.941472 4.822765 55.939014 -22.562253 -7.187275 2.161387 -3.801444 -4.009990 -4.960881 0.457936 1.908672 0.000000 0.000000 0.000000 -0.110711 3.280749 -0.071771 -2.188081 -0.365230 1.478349 75.587900 -12.152588 -9.869100 -43.051577 -8.579749 23.119811 -31.647429 1.371677 -1.992123 0.000000 0.000000 0.000000 -2.513446 2.776796 -0.921796 9.157007 1.526154 -1.837923 1.519543 0.267956 -4.265862 1.369608 -0.470356 0.516524 0.000000 0.000000 0.000000 1.336070 0.149246 -3.156647 -14.432886 -4.205371 7.139764 11.557641 -0.029585 -6.968746 0.000000 0.000000 0.000000 0.948720 0.275589 -2.979120 -5.900672 -28.646233 -5.503458 -1.633378 -5.793209 0.317153 -20.656659 -9.257837 -16.103225 -119.418112 -71.635045 -121.517740 0.000000 0.000000 0.000000 1.272893 -0.072367 -3.464405 -6.934084 20.198101 5.909317 -2.136064 -0.114475 2.280133 -27.193357 12.387325 28.376620 -163.979550 62.886836 165.997940 0.000000 0.000000 0.000000 
-5.541644 28.644278 -0.106297 0.000000 0.000000 0.000000 2.598973 -1.200110 -0.455117 -45.099118 -10.241537 5.139264 42.319835 -21.006158 -7.387148 5.651980 -3.352325 -3.833877 -4.286228 0.395654 1.507868 0.000000 0.000000 0.000000 2.271144 3.311382 -0.122200 2.378220 -2.825379 2.346963 61.589475 -11.626956 -10.430659 -37.925353 -6.353425 21.092720 -32.409493 2.013187 -1.489664 0.000000 0.000000 0.000000 0.212933 2.929916 -0.934724 7.274049 2.042420 -1.423846 -0.542887 0.647745 -4.430858 1.490779 -0.744679 0.846267 0.000000 0.000000 0.000000 -0.532427 0.230671 -3.053565 -25.887366 -4.869194 5.344787 11.034384 -0.802923 -7.789401 0.000000 0.000000 0.000000 -0.948657 0.593107 -3.158416 -5.065328 -21.135672 -4.511112 -2.443327 -4.285283 1.418674 -16.983873 -3.664006 -9.938854 -55.814930 -84.884498 -61.855484 0.000000 0.000000 0.000000 -0.408327 0.153117 -3.646496 -6.780130 14.361499 3.223321 -2.515494 1.260475 1.102880 -14.707767 9.068964 19.843875 174.409850 73.812495 -169.668811 0.000000 0.000000 0.000000 
-5.533087 30.268574 0.647953 0.000000 0.000000 0.000000 4.580687 -1.326671 -1.057446 -38.732562 -9.090996 6.792999 30.550698 -19.264938 -7.477274 7.752067 -2.414093 -3.560813 -3.072918 0.397458 0.907391 0.000000 0.000000 0.000000 4.232761 2.772778 -0.813598 6.059458 -4.823734 3.353014 48.938544 -10.655245 -10.346416 -31.166679 -3.687588 18.894636 -35.484523 2.764834 -0.994456 0.000000 0.000000 0.000000 2.418234 2.554961 -1.455201 5.732948 2.848739 -0.792431 -2.035828 1.361015 -4.169419 1.324200 -1.095107 0.779095 0.000000 0.000000 0.000000 -1.989284 0.620374 -2.650066 -38.027560 -5.231771 3.522127 10.866457 -1.463747 -8.687084 0.000000 0.000000 0.000000 -2.273835 1.211577 -3.046751 -4.380626 -13.507025 -3.124753 -4.093844 -2.175001 1.973568 -15.860580 3.016862 -5.460586 22.747738 -63.704307 11.890012 0.000000 0.000000 0.000000 -1.608070 0.770574 -3.421676 -7.049235 8.686233 0.973959 -2.785508 2.106481 0.487598 -3.881878 1.227696 12.316364 77.638412 79.348958 -69.708057 0.000000 0.000000 0.000000 
-5.465068 31.446796 1.455992 0.000000 0.000000 0.000000 5.796622 -2.425254 -2.093888 -33.705218 -7.765169 9.232443 23.030693 -18.214977 -7.141349 8.054997 -1.561957 -3.693413 -2.904404 0.399827 0.531021 0.000000 0.000000 0.000000 5.497763 1.977654 -1.979297 8.488528 -6.315113 4.199474 40.707777 -9.299472 -9.421325 -23.541656 -0.928586 17.126373 -40.969476 3.547518 -0.732221 0.000000 0.000000 0.000000 3.608286 1.802539 -2.352384 4.961469 3.722019 -0.099261 -2.818989 2.193122 -3.460079 1.523047 -1.372241 0.720855 0.000000 0.000000 0.000000 -2.814435 1.217809 -1.943780 -49.024762 -5.032862 1.934769 11.239189 -1.828691 -9.446839 0.000000 0.000000 0.000000 -2.875454 1.952995 -2.538202 -3.978826 -6.540991 -0.805662 -5.634910 -0.685653 1.658791 -16.198132 9.267337 -2.388591 28.711294 -36.103069 12.150570 0.000000 0.000000 0.000000 -2.241026 1.580988 -2.721050 -7.586306 3.584371 -0.747763 -3.214122 2.464051 0.500820 4.015257 -8.859712 7.190728 36.808118 58.975200 -25.191138 0.000000 0.000000 0.000000 
-5.317946 32.083370 2.180374 0.000000 0.000000 0.000000 6.065356 -3.952528 -3.281654 -30.443618 -6.588671 11.678159 20.838919 -18.251568 -6.464068 6.727730 -1.146539 -4.161443 -3.911282 0.391906 0.601720 0.000000 0.000000 0.000000 5.821671 1.361145 -3.392292 9.460544 -7.535945 4.318733 38.273409 -7.334653 -7.897558 -16.138603 1.717192 16.500701 -47.291810 4.205771 -0.701780 0.000000 0.000000 0.000000 3.800902 0.829359 -3.364229 4.977000 4.481051 0.474697 -2.950519 2.974774 -2.462308 2.300084 -0.920921 0.468831 0.000000 0.000000 0.000000 -2.969414 1.910279 -1.056856 -57.126152 -4.249866 0.995504 12.211701 -1.675861 -9.955842 0.000000 0.000000 0.000000 -2.922296 2.733573 -1.643367 -4.087870 -0.697650 2.199797 -6.481353 -0.466871 1.095118 -16.617073 13.466379 -0.957759 32.388405 -15.565475 9.806404 0.000000 0.000000 0.000000 -2.401331 2.377161 -1.774388 -8.217888 -0.805371 -2.072133 -3.980777 1.967344 0.988160 8.835014 -18.796011 3.897308 28.918727 38.717784 -13.517643 0.000000 0.000000 0.000000 
-5.135357 32.221901 2.808649 0.000000 0.000000 0.000000 5.540276 -5.020119 -4.253318 -29.080982 -5.920893 13.474977 23.288075 -19.044772 -5.630407 4.250216 -1.151908 -4.447292 -5.091827 0.371029 0.979612 0.000000 0.000000 0.000000 5.240631 1.430623 -4.622064 9.420759 -8.696183 3.495950 40.268244 -5.012464 -6.391785 -10.403979 3.987194 16.554700 -52.349930 4.694781 -0.746661 0.000000 0.000000 0.000000 3.114144 0.171315 -4.157883 5.544924 4.964562 0.799401 -2.626956 3.564026 -1.417160 2.264424 -0.352435 0.400963 0.000000 0.000000 0.000000 -2.445054 2.538021 -0.230227 -61.482679 -3.104779 0.838889 13.586608 -0.939246 -10.219951 0.000000 0.000000 0.000000 -2.583318 3.437942 -0.526946 -4.708686 3.336049 5.647879 -6.194961 -0.845773 0.216061 -16.914873 15.589569 -0.231357 35.894570 -6.038356 8.157887 0.000000 0.000000 0.000000 -2.277698 2.958397 -0.800656 -8.873516 -4.213946 -3.162758 -4.925975 1.592683 1.367564 10.496680 -27.372261 1.230618 26.033729 25.767495 -7.268176 0.000000 0.000000 0.000000 
-4.927016 32.034702 3.366842 0.000000 0.000000 0.000000 4.452228 -4.808645 -4.801862 -29.038717 -5.809402 13.988686 28.015414 -19.811903 -4.882110 1.023996 -1.326598 -4.241950 -5.543907 0.387285 1.289659 0.000000 0.000000 0.000000 4.201441 1.836393 -5.242923 9.011940 -9.812569 1.929161 43.934116 -2.873895 -5.466611 -7.250871 5.377147 16.589426 -55.598809 4.969359 -0.799470 0.000000 0.000000 0.000000 1.891139 0.184226 -4.544366 6.266319 5.038338 0.807016 -2.151252 3.903773 -0.587461 1.949922 0.325768 0.595621 0.000000 0.000000 0.000000 -1.535307 3.015785 0.328514 -62.054885 -1.917894 1.420546 14.977826 0.295757 -10.185260 0.000000 0.000000 0.000000 -2.054974 3.905919 0.496698 -5.485855 5.155916 8.946380 -4.652575 -1.410426 -0.472200 -17.228949 15.973072 0.688842 39.077428 -4.983701 7.677594 0.000000 0.000000 0.000000 -1.904165 3.230850 -0.085901 -9.418277 -6.455557 -4.003536 -5.689378 1.402165 1.244902 9.757081 -33.515731 -1.167842 24.386745 20.116386 -3.207017 0.000000 0.000000 0.000000 
-4.701993 31.722410 3.799089 0.000000 0.000000 0.000000 3.318860 -3.418633 -4.702253 -29.621267 -6.072103 13.055754 32.660564 -20.126824 -4.546555 -2.448825 -1.492590 -3.692537 -4.802796 0.487864 1.309234 0.000000 0.000000 0.000000 2.991910 2.691893 -5.118419 9.092772 -10.999911 0.016610 46.878556 -1.390958 -5.219675 -6.495912 5.710212 16.426876 -57.184021 5.102346 -0.767566 0.000000 0.000000 0.000000 0.648472 1.159249 -4.382875 6.697859 4.770548 0.555012 -1.693709 4.010242 -0.137713 1.005827 1.043569 0.442260 0.000000 0.000000 0.000000 -0.577294 3.273678 0.514486 -59.457992 -0.938701 2.641269 15.923824 1.797349 -9.919961 0.000000 0.000000 0.000000 -1.521631 4.118850 1.140845 -5.985627 4.743644 11.012003 -2.389142 -1.878110 -0.251560 -17.408732 16.277917 1.977093 41.079715 -7.808323 7.539624 0.000000 0.000000 0.000000 -1.497215 3.198658 0.233020 -9.784617 -7.440079 -4.420612 -5.881634 1.609981 0.577216 7.588889 -37.151899 -3.205426 22.733486 18.721586 -0.385013 0.000000 0.000000 0.000000 
